<svg width="66" height="66" viewBox="0 0 56 60" fill="none" xmlns="http://www.w3.org/2000/svg">
<path d="M55.5 30C55.5 46.3255 43.1559 59.5 28 59.5C12.8441 59.5 0.5 46.3255 0.5 30C0.5 13.6745 12.8441 0.5 28 0.5C43.1559 0.5 55.5 13.6745 55.5 30Z" fill="#065364" fill-opacity="0.98" stroke="#37E0F7" stroke-linecap="round" stroke-linejoin="round"/>
<path d="M10.145 38L14.2056 14.5391L19.9902 14.5552C21.6982 14.5981 23.1377 15.0439 24.3086 15.8926C25.4902 16.7412 26.3335 17.9175 26.8384 19.4214C27.354 20.9253 27.4937 22.6064 27.2573 24.4648L26.7417 27.897C26.269 31.0552 25.125 33.5259 23.3096 35.3091C21.5049 37.0923 19.2329 37.9893 16.4937 38H10.145ZM18.1533 18.4868L15.4463 34.0684L16.5903 34.1006C18.1909 34.1006 19.4316 33.6387 20.3125 32.7148C21.1934 31.7803 21.7842 30.2817 22.085 28.2192L22.6328 24.4165C22.7832 23.1812 22.8423 22.2788 22.8101 21.7095C22.7563 20.6353 22.4824 19.8403 21.9883 19.3247C21.4941 18.8091 20.7637 18.5352 19.7969 18.5029L18.1533 18.4868ZM36.1841 38.3223C34.8198 38.2793 33.7563 37.6938 32.9937 36.5659L31.4468 44.7031H26.9995L31.189 20.5654L35.2495 20.5493L35.0078 22.1606C36.0713 20.8501 37.2798 20.2056 38.6333 20.2271C40.1587 20.2485 41.2974 20.8286 42.0493 21.9673C42.8013 23.106 43.1396 24.7388 43.0645 26.8657C42.9785 29.3687 42.6562 31.4956 42.0977 33.2466C41.5391 34.9868 40.7549 36.2812 39.7451 37.1299C38.7461 37.9785 37.5591 38.376 36.1841 38.3223ZM38.6494 26.8174C38.6494 25.8076 38.5151 25.0986 38.2466 24.6904C37.9888 24.2822 37.5806 24.0674 37.022 24.0459C36.2271 24.0244 35.502 24.4165 34.8467 25.2222L33.3965 33.4399C33.7402 34.1382 34.3418 34.5088 35.2012 34.5518C36.8555 34.6377 37.876 33.354 38.2627 30.7007L38.6172 27.4136L38.6494 26.8174Z" fill="#F9F9F9"/>
</svg>
