<svg data-v-423bf9ae="" xmlns="http://www.w3.org/2000/svg" viewBox="0 0 45.15239515170793 60" class="font"><!----><!----><defs data-v-423bf9ae=""><linearGradient data-v-423bf9ae="" gradientTransform="rotate(25)" id="5b82ab56-051c-471d-a4b8-b026cf2fed97" x1="0%" y1="0%" x2="100%" y2="0%"><stop data-v-423bf9ae="" offset="0%" style="stop-color: rgb(230, 53, 0); stop-opacity: 1;"></stop><stop data-v-423bf9ae="" offset="100%" style="stop-color: rgb(255, 195, 22); stop-opacity: 1;"></stop></linearGradient></defs><g data-v-423bf9ae="" id="94e48681-2029-4b2f-857c-531967c3a4e6" fill="url(#5b82ab56-051c-471d-a4b8-b026cf2fed97)" transform="matrix(4.354136513982575,0,0,4.354136513982575,-1.8287378966293986,-13.584905902171414)"><path d="M7.76 4.82L7.95 3.43L0.60 3.43L0.42 4.82L3.11 4.82L1.93 13.68L3.84 13.68L5.03 4.82ZM10.79 4.03C10.79 3.53 10.43 3.12 9.91 3.12C9.28 3.12 8.74 3.71 8.74 4.34C8.74 4.83 9.11 5.26 9.63 5.26C10.26 5.26 10.79 4.66 10.79 4.03ZM9.37 13.20L10.25 6.72L8.48 6.72L8.54 7.46L7.73 13.47C7.63 14.18 7.42 15.78 6.44 15.78C6.01 15.78 5.47 15.55 5.22 15.19L4.45 16.31C5.03 16.66 5.87 16.90 6.52 16.90C8.81 16.90 9.11 15.02 9.37 13.20Z"></path></g><!----><!----></svg>